<svg width="166" height="166" viewBox="0 0 166 166" fill="none" xmlns="http://www.w3.org/2000/svg">
<rect x="0.429688" y="0.131409" width="165" height="165" rx="82.5" fill="black"/>
<path d="M62.2601 63.6514V82.6314H56.0851V63.6514L38.1451 36.2214H45.4901L59.4001 58.3214L72.9851 36.2214H80.0051L62.2601 63.6514ZM78.4949 75.4164H85.7099V82.6314H78.4949V75.4164ZM121.806 71.0614C121.806 72.6214 121.567 74.1597 121.091 75.6764C120.657 77.1931 119.899 78.5581 118.816 79.7714C117.776 80.9414 116.367 81.8947 114.591 82.6314C112.857 83.3247 110.691 83.6714 108.091 83.6714C103.757 83.6714 100.421 82.5447 98.0807 80.2914C95.7407 77.9947 94.5707 74.6364 94.5707 70.2164V67.3564H100.746V69.3064C100.746 70.6497 100.854 71.8847 101.071 73.0114C101.287 74.1381 101.656 75.1131 102.176 75.9364C102.739 76.7597 103.497 77.4097 104.451 77.8864C105.447 78.3197 106.704 78.5364 108.221 78.5364C111.037 78.5364 112.966 77.7781 114.006 76.2614C115.089 74.7447 115.631 72.7081 115.631 70.1514V36.2214H121.806V71.0614Z" fill="white"/>
<mask id="mask0_88_126" style="mask-type:alpha" maskUnits="userSpaceOnUse" x="25" y="23" width="116" height="119">
<rect x="3" y="-3" width="109.055" height="112.567" rx="54.5275" transform="matrix(1 0 0 -1 25.4023 135.915)" stroke="white" stroke-width="6"/>
</mask>
<g mask="url(#mask0_88_126)">
<rect x="23.7529" y="91.9349" width="118.567" height="118.567" fill="white"/>
</g>
<line y1="-3" x2="23" y2="-3" transform="matrix(-0.889764 0.45642 -0.498141 -0.867096 37.3789 83.3225)" stroke="white" stroke-width="6"/>
<line y1="-3" x2="23" y2="-3" transform="matrix(-0.889764 0.45642 -0.498141 -0.867096 37.3789 83.3225)" stroke="white" stroke-width="6"/>
<line y1="-3" x2="23" y2="-3" transform="matrix(0.889764 0.45642 0.498141 -0.867096 130.225 83.3225)" stroke="white" stroke-width="6"/>
<line y1="-3" x2="23" y2="-3" transform="matrix(0.889764 0.45642 0.498141 -0.867096 130.225 83.3225)" stroke="white" stroke-width="6"/>
</svg>
