<svg width="47" height="47" viewBox="0 0 47 47" fill="none" xmlns="http://www.w3.org/2000/svg">
<mask id="mask0_97_210" style="mask-type:alpha" maskUnits="userSpaceOnUse" x="0" y="0" width="47" height="47">
<rect x="0.208252" y="0.768204" width="46" height="46" fill="#D9D9D9"/>
</mask>
<g mask="url(#mask0_97_210)">
<circle cx="23.2083" cy="23.7682" r="23" fill="#1E1E1E"/>
<line y1="-0.9" x2="7" y2="-0.9" transform="matrix(0.889764 0.45642 0.498141 -0.867096 35.2417 24.5247)" stroke="white" stroke-width="1.8"/>
<line y1="-0.9" x2="7" y2="-0.9" transform="matrix(0.889764 0.45642 0.498141 -0.867096 35.2417 24.5247)" stroke="white" stroke-width="1.8"/>
<line y1="-0.9" x2="7" y2="-0.9" transform="matrix(-0.889764 0.45642 -0.498141 -0.867096 11.271 24.5247)" stroke="white" stroke-width="1.8"/>
<line y1="-0.9" x2="7" y2="-0.9" transform="matrix(-0.889764 0.45642 -0.498141 -0.867096 11.271 24.5247)" stroke="white" stroke-width="1.8"/>
<path d="M17.4223 17.9517V23.2077H15.7123V17.9517L10.7443 10.3557H12.7783L16.6303 16.4757L20.3923 10.3557H22.3363L17.4223 17.9517ZM21.918 21.2097H23.916V23.2077H21.918V21.2097ZM33.9118 20.0037C33.9118 20.4357 33.8458 20.8617 33.7138 21.2817C33.5938 21.7017 33.3838 22.0797 33.0838 22.4157C32.7958 22.7397 32.4058 23.0037 31.9138 23.2077C31.4338 23.3997 30.8338 23.4957 30.1138 23.4957C28.9138 23.4957 27.9898 23.1837 27.3418 22.5597C26.6938 21.9237 26.3698 20.9937 26.3698 19.7697V18.9777H28.0798V19.5177C28.0798 19.8897 28.1098 20.2317 28.1698 20.5437C28.2298 20.8557 28.3318 21.1257 28.4758 21.3537C28.6318 21.5817 28.8418 21.7617 29.1058 21.8937C29.3818 22.0137 29.7298 22.0737 30.1498 22.0737C30.9298 22.0737 31.4638 21.8637 31.7518 21.4437C32.0518 21.0237 32.2018 20.4597 32.2018 19.7517V10.3557H33.9118V20.0037Z" fill="white"/>
<mask id="mask1_97_210" style="mask-type:alpha" maskUnits="userSpaceOnUse" x="7" y="9" width="32" height="32">
<rect x="1" y="-1" width="29.3846" height="29.3846" rx="14.6923" transform="matrix(1 0 0 -1 7.51587 38.9)" stroke="white" stroke-width="2"/>
</mask>
<g mask="url(#mask1_97_210)">
</g>
<mask id="mask2_97_210" style="mask-type:alpha" maskUnits="userSpaceOnUse" x="7" y="8" width="32" height="32">
<rect x="1" y="-1" width="29.3846" height="29.3846" rx="14.6923" transform="matrix(1 0 0 -1 7.51587 37.9)" stroke="white" stroke-width="2"/>
</mask>
<g mask="url(#mask2_97_210)">
<rect x="7.51587" y="26.7538" width="31.3846" height="31.3846" fill="white"/>
<path d="M24.5409 23.0048L21.0255 24.9132" stroke="white" stroke-width="3"/>
<path d="M24.5409 23.0048L21.0255 24.9132" stroke="white" stroke-width="3"/>
</g>
</g>
</svg>
